# xmcd
#
# Track frame offsets:
#	210
#	15763
#	31828
#	47016
#	63612
#	78326
#	95126
#
# Disc length: 1479 seconds
#
# Revision: 2
# Processed by: cddbd v1.4PL0 Copyright (c) Steve Scherf et al.
# Submitted via: audiograbber 1.80.04
#
DISCID=4b05c507
DTITLE=Netinho - Corpo Cabeça CD1 (2000)
DYEAR=2000
DGENRE=MUSICA BRASILEIRA
TTITLE0=Garotas Do Brasil
TTITLE1=Dia De Farra
TTITLE2=Fulano De Tal
TTITLE3=Intuição
TTITLE4=Eu Quero Paz
TTITLE5=Lua, Lua, Lua
TTITLE6=Nas Asas Do Avião
EXTD=
EXTT0=
EXTT1=
EXTT2=
EXTT3=
EXTT4=
EXTT5=
EXTT6=
PLAYORDER=
